<mxfile host="Electron" modified="2023-10-01T18:21:55.460Z" agent="Mozilla/5.0 (Windows NT 10.0; Win64; x64) AppleWebKit/537.36 (KHTML, like Gecko) draw.io/22.0.0 Chrome/114.0.5735.289 Electron/25.8.3 Safari/537.36" etag="KO0iEf-IDTkYK17-yGHM" version="22.0.0" type="device">
  <diagram name="Страница — 1" id="BbGgLedVpm5kXeKfn2I-">
    <mxGraphModel dx="1335" dy="1932" grid="1" gridSize="10" guides="1" tooltips="1" connect="1" arrows="1" fold="1" page="1" pageScale="1" pageWidth="827" pageHeight="1169" math="0" shadow="0">
      <root>
        <mxCell id="0" />
        <mxCell id="1" parent="0" />
        <mxCell id="cgvUR_F9EEA-tuyxDBKp-3" value="" style="rounded=1;whiteSpace=wrap;html=1;dashed=1;align=center;labelPosition=center;verticalLabelPosition=middle;verticalAlign=middle;" parent="1" vertex="1">
          <mxGeometry x="70" y="620" width="660" height="320" as="geometry" />
        </mxCell>
        <mxCell id="cgvUR_F9EEA-tuyxDBKp-2" value="Activity" style="rounded=0;whiteSpace=wrap;html=1;" parent="1" vertex="1">
          <mxGeometry x="335" y="680" width="120" height="220" as="geometry" />
        </mxCell>
        <mxCell id="cgvUR_F9EEA-tuyxDBKp-34" style="edgeStyle=orthogonalEdgeStyle;rounded=0;orthogonalLoop=1;jettySize=auto;html=1;exitX=1;exitY=0.25;exitDx=0;exitDy=0;" parent="1" source="cgvUR_F9EEA-tuyxDBKp-4" edge="1">
          <mxGeometry relative="1" as="geometry">
            <mxPoint x="720.1428571428573" y="-20" as="targetPoint" />
            <Array as="points">
              <mxPoint x="790" y="330" />
              <mxPoint x="790" y="-20" />
            </Array>
          </mxGeometry>
        </mxCell>
        <mxCell id="cgvUR_F9EEA-tuyxDBKp-4" value="" style="rounded=1;whiteSpace=wrap;html=1;dashed=1;" parent="1" vertex="1">
          <mxGeometry x="70" y="240" width="650" height="360" as="geometry" />
        </mxCell>
        <mxCell id="cgvUR_F9EEA-tuyxDBKp-5" value="GetUserNameUseCase" style="ellipse;whiteSpace=wrap;html=1;" parent="1" vertex="1">
          <mxGeometry x="170" y="490" width="200" height="80" as="geometry" />
        </mxCell>
        <mxCell id="cgvUR_F9EEA-tuyxDBKp-7" value="SaveUserNameUseCase" style="ellipse;whiteSpace=wrap;html=1;" parent="1" vertex="1">
          <mxGeometry x="440" y="490" width="200" height="80" as="geometry" />
        </mxCell>
        <mxCell id="cgvUR_F9EEA-tuyxDBKp-8" value="" style="endArrow=classic;html=1;rounded=0;entryX=0;entryY=0;entryDx=0;entryDy=0;exitX=0.5;exitY=1;exitDx=0;exitDy=0;" parent="1" source="cgvUR_F9EEA-tuyxDBKp-5" target="cgvUR_F9EEA-tuyxDBKp-2" edge="1">
          <mxGeometry width="50" height="50" relative="1" as="geometry">
            <mxPoint x="259.96" y="585" as="sourcePoint" />
            <mxPoint x="329.99999999999994" y="685.04" as="targetPoint" />
            <Array as="points" />
          </mxGeometry>
        </mxCell>
        <mxCell id="cgvUR_F9EEA-tuyxDBKp-10" value="" style="endArrow=classic;html=1;rounded=0;" parent="1" source="cgvUR_F9EEA-tuyxDBKp-7" target="cgvUR_F9EEA-tuyxDBKp-2" edge="1">
          <mxGeometry width="50" height="50" relative="1" as="geometry">
            <mxPoint x="390" y="530" as="sourcePoint" />
            <mxPoint x="440" y="480" as="targetPoint" />
          </mxGeometry>
        </mxCell>
        <mxCell id="cgvUR_F9EEA-tuyxDBKp-11" value="&lt;b&gt;&lt;font style=&quot;font-size: 16px;&quot;&gt;presentation&lt;/font&gt;&lt;/b&gt;" style="text;html=1;strokeColor=none;fillColor=none;align=center;verticalAlign=middle;whiteSpace=wrap;rounded=0;" parent="1" vertex="1">
          <mxGeometry x="130" y="890" width="60" height="30" as="geometry" />
        </mxCell>
        <mxCell id="cgvUR_F9EEA-tuyxDBKp-12" value="&lt;b&gt;&lt;font style=&quot;font-size: 16px;&quot;&gt;domain&lt;/font&gt;&lt;/b&gt;" style="text;html=1;strokeColor=none;fillColor=none;align=center;verticalAlign=middle;whiteSpace=wrap;rounded=0;" parent="1" vertex="1">
          <mxGeometry x="100" y="270" width="60" height="30" as="geometry" />
        </mxCell>
        <mxCell id="cgvUR_F9EEA-tuyxDBKp-36" style="edgeStyle=orthogonalEdgeStyle;rounded=0;orthogonalLoop=1;jettySize=auto;html=1;exitX=0;exitY=0.5;exitDx=0;exitDy=0;" parent="1" source="cgvUR_F9EEA-tuyxDBKp-14" edge="1">
          <mxGeometry relative="1" as="geometry">
            <mxPoint x="69.85714285714289" y="834.5714285714286" as="targetPoint" />
            <Array as="points">
              <mxPoint x="20" y="20" />
              <mxPoint x="20" y="835" />
            </Array>
          </mxGeometry>
        </mxCell>
        <mxCell id="cgvUR_F9EEA-tuyxDBKp-14" value="" style="rounded=1;whiteSpace=wrap;html=1;dashed=1;" parent="1" vertex="1">
          <mxGeometry x="70" y="-150" width="650" height="360" as="geometry" />
        </mxCell>
        <mxCell id="cgvUR_F9EEA-tuyxDBKp-15" value="&lt;b&gt;&lt;font style=&quot;font-size: 16px;&quot;&gt;data&lt;/font&gt;&lt;/b&gt;" style="text;html=1;strokeColor=none;fillColor=none;align=center;verticalAlign=middle;whiteSpace=wrap;rounded=0;" parent="1" vertex="1">
          <mxGeometry x="100" y="-140" width="60" height="30" as="geometry" />
        </mxCell>
        <mxCell id="cgvUR_F9EEA-tuyxDBKp-16" value="" style="rounded=1;whiteSpace=wrap;html=1;" parent="1" vertex="1">
          <mxGeometry x="120" y="-90" width="150" height="80" as="geometry" />
        </mxCell>
        <mxCell id="cgvUR_F9EEA-tuyxDBKp-17" value="UserRepositoryImpl - implementation" style="text;html=1;strokeColor=none;fillColor=none;align=center;verticalAlign=middle;whiteSpace=wrap;rounded=0;" parent="1" vertex="1">
          <mxGeometry x="165" y="-65" width="60" height="30" as="geometry" />
        </mxCell>
        <mxCell id="cgvUR_F9EEA-tuyxDBKp-18" value="" style="rounded=1;whiteSpace=wrap;html=1;" parent="1" vertex="1">
          <mxGeometry x="200" y="260" width="170" height="60" as="geometry" />
        </mxCell>
        <mxCell id="cgvUR_F9EEA-tuyxDBKp-19" value="SaveUserNameParam model" style="text;html=1;strokeColor=none;fillColor=none;align=center;verticalAlign=middle;whiteSpace=wrap;rounded=0;" parent="1" vertex="1">
          <mxGeometry x="205" y="275" width="160" height="30" as="geometry" />
        </mxCell>
        <mxCell id="cgvUR_F9EEA-tuyxDBKp-20" value="" style="rounded=1;whiteSpace=wrap;html=1;" parent="1" vertex="1">
          <mxGeometry x="414" y="260" width="140" height="60" as="geometry" />
        </mxCell>
        <mxCell id="cgvUR_F9EEA-tuyxDBKp-21" value="UserName model" style="text;html=1;strokeColor=none;fillColor=none;align=center;verticalAlign=middle;whiteSpace=wrap;rounded=0;" parent="1" vertex="1">
          <mxGeometry x="424" y="275" width="120" height="30" as="geometry" />
        </mxCell>
        <mxCell id="cgvUR_F9EEA-tuyxDBKp-26" value="" style="rounded=1;whiteSpace=wrap;html=1;" parent="1" vertex="1">
          <mxGeometry x="305" y="370" width="180" height="60" as="geometry" />
        </mxCell>
        <mxCell id="cgvUR_F9EEA-tuyxDBKp-27" value="UserRepository - interface" style="text;html=1;strokeColor=none;fillColor=none;align=center;verticalAlign=middle;whiteSpace=wrap;rounded=0;" parent="1" vertex="1">
          <mxGeometry x="320" y="385" width="150" height="30" as="geometry" />
        </mxCell>
        <mxCell id="cgvUR_F9EEA-tuyxDBKp-28" value="" style="endArrow=classic;html=1;rounded=0;" parent="1" source="cgvUR_F9EEA-tuyxDBKp-26" target="cgvUR_F9EEA-tuyxDBKp-7" edge="1">
          <mxGeometry width="50" height="50" relative="1" as="geometry">
            <mxPoint x="380" y="490" as="sourcePoint" />
            <mxPoint x="430" y="440" as="targetPoint" />
          </mxGeometry>
        </mxCell>
        <mxCell id="cgvUR_F9EEA-tuyxDBKp-29" value="" style="endArrow=classic;html=1;rounded=0;" parent="1" source="cgvUR_F9EEA-tuyxDBKp-26" target="cgvUR_F9EEA-tuyxDBKp-5" edge="1">
          <mxGeometry width="50" height="50" relative="1" as="geometry">
            <mxPoint x="300" y="480" as="sourcePoint" />
            <mxPoint x="350" y="430" as="targetPoint" />
          </mxGeometry>
        </mxCell>
        <mxCell id="cgvUR_F9EEA-tuyxDBKp-35" style="edgeStyle=orthogonalEdgeStyle;rounded=0;orthogonalLoop=1;jettySize=auto;html=1;exitX=1;exitY=0.75;exitDx=0;exitDy=0;entryX=1.004;entryY=0.63;entryDx=0;entryDy=0;entryPerimeter=0;" parent="1" source="cgvUR_F9EEA-tuyxDBKp-4" target="cgvUR_F9EEA-tuyxDBKp-3" edge="1">
          <mxGeometry relative="1" as="geometry">
            <Array as="points">
              <mxPoint x="790" y="510" />
              <mxPoint x="790" y="822" />
            </Array>
          </mxGeometry>
        </mxCell>
        <mxCell id="G9IMdziN34L6-wYIvBmR-1" value="" style="rounded=1;whiteSpace=wrap;html=1;" vertex="1" parent="1">
          <mxGeometry x="350" y="470" width="120" height="60" as="geometry" />
        </mxCell>
        <mxCell id="G9IMdziN34L6-wYIvBmR-2" value="" style="rounded=1;whiteSpace=wrap;html=1;" vertex="1" parent="1">
          <mxGeometry x="350" y="470" width="120" height="60" as="geometry" />
        </mxCell>
        <mxCell id="G9IMdziN34L6-wYIvBmR-3" value="" style="rounded=1;whiteSpace=wrap;html=1;" vertex="1" parent="1">
          <mxGeometry x="350" y="470" width="120" height="60" as="geometry" />
        </mxCell>
        <mxCell id="G9IMdziN34L6-wYIvBmR-4" value="" style="rounded=1;whiteSpace=wrap;html=1;" vertex="1" parent="1">
          <mxGeometry x="350" y="470" width="120" height="60" as="geometry" />
        </mxCell>
        <mxCell id="G9IMdziN34L6-wYIvBmR-5" value="" style="rounded=1;whiteSpace=wrap;html=1;" vertex="1" parent="1">
          <mxGeometry x="350" y="470" width="120" height="60" as="geometry" />
        </mxCell>
        <mxCell id="G9IMdziN34L6-wYIvBmR-12" style="edgeStyle=orthogonalEdgeStyle;rounded=0;orthogonalLoop=1;jettySize=auto;html=1;entryX=1;entryY=0.5;entryDx=0;entryDy=0;" edge="1" parent="1" source="G9IMdziN34L6-wYIvBmR-6" target="cgvUR_F9EEA-tuyxDBKp-16">
          <mxGeometry relative="1" as="geometry" />
        </mxCell>
        <mxCell id="G9IMdziN34L6-wYIvBmR-13" value="" style="rounded=1;whiteSpace=wrap;html=1;" vertex="1" parent="1">
          <mxGeometry x="320" y="-120" width="350" height="230" as="geometry" />
        </mxCell>
        <mxCell id="G9IMdziN34L6-wYIvBmR-6" value="" style="rounded=1;whiteSpace=wrap;html=1;" vertex="1" parent="1">
          <mxGeometry x="350" y="-90" width="150" height="80" as="geometry" />
        </mxCell>
        <mxCell id="G9IMdziN34L6-wYIvBmR-7" value="Text" style="text;html=1;strokeColor=none;fillColor=none;align=center;verticalAlign=middle;whiteSpace=wrap;rounded=0;" vertex="1" parent="1">
          <mxGeometry x="380" y="480" width="60" height="30" as="geometry" />
        </mxCell>
        <mxCell id="G9IMdziN34L6-wYIvBmR-8" value="UserStorage - interface" style="text;html=1;strokeColor=none;fillColor=none;align=center;verticalAlign=middle;whiteSpace=wrap;rounded=0;" vertex="1" parent="1">
          <mxGeometry x="360" y="-65" width="130" height="30" as="geometry" />
        </mxCell>
        <mxCell id="G9IMdziN34L6-wYIvBmR-9" value="" style="rounded=1;whiteSpace=wrap;html=1;" vertex="1" parent="1">
          <mxGeometry x="350" width="150" height="80" as="geometry" />
        </mxCell>
        <mxCell id="G9IMdziN34L6-wYIvBmR-10" value="SharedPrefsUserStorage - implementation" style="text;html=1;strokeColor=none;fillColor=none;align=center;verticalAlign=middle;whiteSpace=wrap;rounded=0;" vertex="1" parent="1">
          <mxGeometry x="394" y="25" width="60" height="30" as="geometry" />
        </mxCell>
        <mxCell id="G9IMdziN34L6-wYIvBmR-14" value="" style="rounded=1;whiteSpace=wrap;html=1;" vertex="1" parent="1">
          <mxGeometry x="520" y="-90" width="130" height="70" as="geometry" />
        </mxCell>
        <mxCell id="G9IMdziN34L6-wYIvBmR-15" value="User model" style="text;html=1;strokeColor=none;fillColor=none;align=center;verticalAlign=middle;whiteSpace=wrap;rounded=0;" vertex="1" parent="1">
          <mxGeometry x="540" y="-70" width="90" height="30" as="geometry" />
        </mxCell>
        <mxCell id="G9IMdziN34L6-wYIvBmR-16" value="&lt;b&gt;&lt;font style=&quot;font-size: 16px;&quot;&gt;storage&lt;/font&gt;&lt;/b&gt;" style="text;html=1;strokeColor=none;fillColor=none;align=center;verticalAlign=middle;whiteSpace=wrap;rounded=0;" vertex="1" parent="1">
          <mxGeometry x="335" y="-120" width="60" height="30" as="geometry" />
        </mxCell>
      </root>
    </mxGraphModel>
  </diagram>
</mxfile>
